<?xml version="1.0" encoding="utf-8"?>
<!-- Generator: Adobe Illustrator 27.8.1, SVG Export Plug-In . SVG Version: 6.00 Build 0)  -->
<svg version="1.1" id="Layer_1" xmlns="http://www.w3.org/2000/svg" xmlns:xlink="http://www.w3.org/1999/xlink" x="0px" y="0px"
	 viewBox="0 0 101 102" style="enable-background:new 0 0 101 102;" xml:space="preserve">
<style type="text/css">
	.st0{fill:#FFFFFF;}
</style>
<g>
	<path class="st0" d="M50.5,101c-7.8-0.2-15.7-0.2-23.5-0.7C13.2,99.4,2.5,89.3,1.3,75.7C0.7,68.4,0.7,61,0.6,53.6
		c-0.1-6.7,0-13.4,0.2-20.1C1,28.8,1,24.1,2.7,19.6C6.1,10.4,12.8,4.8,22.1,2.2C26.4,1,31,1,35.4,1c12.3,0,24.7,0,37,0.2
		c13.9,0.3,25.2,10.1,27.3,23.8c0.5,3.3,0.6,6.6,0.6,9.9c0.1,10.5,0.1,21.1,0,31.6c0,4.3-0.1,8.7-1.2,13
		C96.6,90.3,87.3,98.8,76.4,100c-6.5,0.7-13.1,0.6-19.6,0.8c-2.1,0.1-4.2,0-6.3,0C50.5,100.9,50.5,100.9,50.5,101z M91.9,51
		c-0.1,0-0.1,0-0.2,0c0-2.4,0-4.9,0-7.3c-0.1-6.5,0.1-13-1.3-19.4c-1.4-6.6-5.5-10.9-11.9-12.9c-4.1-1.3-8.4-1.4-12.7-1.4
		c-7.7-0.1-15.4-0.3-23-0.2c-6.1,0-12.2,0.2-18.3,1.2c-6.8,1.2-12.3,6.2-13.6,12.9c-0.7,3.6-1.2,7.3-1.2,11
		C9.6,47,9.6,59.1,9.9,71.2c0.1,3.2,0.7,6.7,1.9,9.7c2.7,6.6,8.3,9.9,15.3,10.4c6.3,0.4,12.6,0.7,18.9,0.7c9.4,0,18.8-0.3,28.2-0.7
		c5.8-0.3,10.6-2.9,13.9-7.9c2.3-3.4,2.9-7.2,3.1-11.1C91.5,65.2,91.6,58.1,91.9,51z"/>
	<path class="st0" d="M50.5,76.5c-14.2,0-25.6-11.5-25.6-25.6c0-14.1,11.6-25.6,25.7-25.5C64.7,25.4,76.3,37,76.1,51
		C76,65.2,64.6,76.5,50.5,76.5z M67.3,51c0-9.3-7.5-16.9-16.8-16.8c-9.2,0-16.8,7.6-16.8,16.8c0,9.2,7.5,16.7,16.8,16.7
		C59.7,67.7,67.3,60.2,67.3,51z"/>
	<path class="st0" d="M77.3,30.1c-3.4,0-6-2.7-6-6.2c0-3.1,2.7-5.6,6-5.5c3.8,0.1,5.9,2.4,5.9,5.7C83.2,27.5,81,29.8,77.3,30.1z"/>
</g>
</svg>
