<?xml version="1.0" encoding="utf-8"?>
<!-- Generator: Adobe Illustrator 27.8.1, SVG Export Plug-In . SVG Version: 6.00 Build 0)  -->
<svg version="1.1" id="Layer_1" xmlns="http://www.w3.org/2000/svg" xmlns:xlink="http://www.w3.org/1999/xlink" x="0px" y="0px"
	 viewBox="0 0 101 102" style="enable-background:new 0 0 101 102;" xml:space="preserve">
<style type="text/css">
	.st0{fill:#FFFFFF;}
</style>
<g>
	<path class="st0" d="M56.5,100.9c-0.5,0-0.9,0.1-1.3,0.1c-6,0-12.1,0-18.1,0c-1.1,0-1.4-0.3-1.3-1.4c0-7.1,0-14.2,0-21.3
		c0-14,0-28,0-42c0-2.4-0.3-2.1,2.1-2.1c5.4,0,10.8,0,16.2,0c0.5,0,1,0,1.7,0c0,3.1,0,6,0,8.9c0.1,0,0.2,0,0.3,0.1
		c0.5-0.8,1-1.7,1.6-2.5c3.5-4.5,8.2-7,13.8-7.9c5.3-0.9,10.5-0.2,15.5,1.6c5.7,2,9.1,6.2,11,11.8c1.8,5.2,2.4,10.6,2.4,16
		c0,12.4,0,24.8,0,37.2c0,1.1-0.2,1.5-1.5,1.5c-5.9-0.1-11.9,0-17.8,0c-0.4,0-0.8,0-1.4,0c0-0.6,0-1.1,0-1.6c0-11.2,0.2-22.5,0-33.7
		c0-3-0.7-6-1.4-8.9c-0.7-2.7-2.6-4.4-5.2-5.3c-3.1-1.1-6.2-0.9-9.2,0.1c-3.6,1.2-5.4,4-6.3,7.4c-0.6,2.4-1.1,4.9-1.1,7.4
		c-0.1,10.9-0.1,21.9-0.1,32.9C56.5,99.7,56.5,100.2,56.5,100.9z"/>
	<path class="st0" d="M2.1,34.3c1.2,0,2.3,0,3.4,0c5.3,0,10.6,0,15.9,0c1,0,1.3,0.3,1.3,1.3c0,21.4,0,42.8,0,64.2c0,0.7,0,1.3-1,1.3
		c-6.3,0-12.6,0-19,0c-0.2,0-0.3,0-0.6-0.1C2.1,78.7,2.1,56.6,2.1,34.3z"/>
	<path class="st0" d="M24.5,13c0,6.6-5.5,12-12.1,11.9c-6.6-0.1-12-5.5-11.9-12.1C0.6,6.2,6,0.9,12.6,1C19.3,1.1,24.5,6.4,24.5,13z"
		/>
</g>
</svg>
