<?xml version="1.0" encoding="utf-8"?>
<!-- Generator: Adobe Illustrator 27.8.1, SVG Export Plug-In . SVG Version: 6.00 Build 0)  -->
<svg version="1.1" id="Layer_1" xmlns="http://www.w3.org/2000/svg" xmlns:xlink="http://www.w3.org/1999/xlink" x="0px" y="0px"
	 viewBox="0 0 936.8 484.3" style="enable-background:new 0 0 936.8 484.3;" xml:space="preserve">
<style type="text/css">
	.st0{display:none;}
	.st1{display:inline;}
	.st2{fill:#FFFFFF;}
	.st3{fill:#00CAD4;}
</style>
<g class="st0">
	<g class="st1">
		<path class="st2" d="M561.9,333.6c0.3-0.9,0.5-2.1,0-2.8c-2.1-2.4-1.4-4.4,0.4-6.8c10.2-13.4,20.1-26.9,30.1-40.4
			c0.7-1,1.5-1.4,3-1.3c3.4,0.1,6.9,0.1,10.3,0c4.9-0.1,8.6-3,8.6-6.7c0-3.8-3.8-6.9-8.7-6.9c-0.6,0-1.2-0.1-2.2-0.1
			c0.6-0.9,1-1.7,1.4-2.4c1.6-2.6,3.3-5.2,4.8-7.9c0.6-1,1.3-1.3,2.6-1.3c18.1,0,57-0.1,75.1,0c11.1,0.1,21-2.5,29.6-8.3
			c1.4-1,2.9-1.9,4.4-2.8c0.3-0.2,0.6-0.4,0.9-0.5c1.4-0.8,2.2-2.2,2.2-3.8l0,0c0-1.3-0.6-2.5-1.5-3.3c-2.6-2.2-5.6-3.8-8.5-5.5
			c-7.2-4.4-15.4-6.7-24.5-6.7c-18.7-0.1-58.4,0-77.2,0c-1.7,0-2.7-0.3-3.4-1.6c-1.7-3.1-3.7-6.1-5.6-9.2c-0.1-0.2-0.1-0.4-0.3-0.7
			c0.7-0.1,1.3-0.1,1.9-0.1c4.6-0.1,8-2.4,8.8-6c0.7-3.1-1.7-6.2-5.8-7.3c-1-0.3-2.1-0.3-3.2-0.4c-3.4,0-6.9,0-10.3,0
			c-1.1,0-1.8-0.3-2.3-1c-10.6-14.3-21.2-28.6-31.8-42.9c-0.6-0.8-0.8-1.5-0.1-2.3c0.2-0.3,0.3-0.6,0.5-0.9c1.4-2.3,1.6-3.2,0.1-4.6
			c-0.7-0.7-1.6-1-2.6-1l-22,0.1c-0.5,0-1.1,0.1-1.5,0.3c-0.1,0.1-0.2,0.1-0.3,0.2c-1,0.7-1.3,1.6-0.8,2.7
			c3.2,7.3,6.5,14.5,9.7,21.8c3.1,7.1,6.2,14.1,9.2,21.2c3.1,7.2,6.3,14.4,9.4,21.5c1.3,2.9,2.6,5.8,3.8,8.7
			c0.2,0.4,0.3,0.8,0.5,1.4c-0.8,0-1.3,0.1-1.9,0c-13-1.4-25.9-0.4-38.8,0.9c-6.1,0.7-12.2,1.5-18.3,2.3c-1.3,0.2-2.2,0-3.1-0.9
			c-5.1-4.6-10.3-9.1-15.6-13.6c-1.1-1-1.5-1.8-0.6-2.9c0.5-0.7,0.9-1.5,1.2-2.3c0.8-2.3-1-4.4-4-4.5c-5.6-0.1-11.1-0.1-16.7,0
			c-3.1,0-5,2.5-3.9,4.9c3.1,6.4,6.3,12.7,9.5,19.1c1,2,1.9,4,3,5.9c0.4,0.8,0.1,1.1-0.8,1.3c-4.1,0.8-8.2,1.5-12.3,2.3
			c-2.5,0.5-5.1,1.1-7.7,1.6v2.7c4.6,0.9,9.1,1.8,13.6,2.7c2.2,0.4,4.3,0.8,6.5,1.2c0.9,0.2,1.2,0.5,0.8,1.2
			c-3.5,6.9-6.9,13.9-10.4,20.8c-0.7,1.5-1.5,2.9-2.2,4.4c-1,2.2,0.8,4.7,3.8,4.7c5.7,0.1,11.3,0.1,17,0c2.7,0,4.6-2.2,3.9-4.3
			c-0.4-1.1-1-2.1-1.6-3.2c-0.4-0.7-0.3-1.2,0.3-1.7c5.5-4.7,11-9.5,16.4-14.3c0.8-0.7,1.6-0.8,2.6-0.7c8.8,1,17.5,2.2,26.3,3
			c10.6,1,21.2,1.4,31.8,0.3c1.8-0.2,2,0,1.4,1.3c-2.1,4.5-4.1,9-6.2,13.5c-3.6,7.8-7.2,15.6-10.8,23.4c-5.2,11.3-10.4,22.7-15.7,34
			c-0.2,0.4-0.3,0.8-0.5,1.1c-1,2.1-0.9,3,1.1,4.6c0.3,0.2,0.6,0.3,1,0.3h23.2c0.7,0,1.4-0.2,2-0.7
			C561.5,334.2,561.8,333.9,561.9,333.6z"/>
		<g>
			<g>
				<path class="st2" d="M525.7,157h-61.2c-0.9,0-1.7-0.8-1.7-1.7v-0.2c0-0.9,0.8-1.7,1.7-1.7h61.2c0.9,0,1.7,0.8,1.7,1.7v0.2
					C527.3,156.3,526.6,157,525.7,157z"/>
				<path class="st2" d="M536.6,183.1h-46.9c-0.9,0-1.7-0.8-1.7-1.7v-0.2c0-0.9,0.8-1.7,1.7-1.7h46.9c0.9,0,1.7,0.8,1.7,1.7v0.2
					C538.3,182.3,537.5,183.1,536.6,183.1z"/>
				<path class="st2" d="M547.7,207.9h-26.2c-0.9,0-1.7-0.8-1.7-1.7V206c0-0.9,0.8-1.7,1.7-1.7h26.2c0.9,0,1.7,0.8,1.7,1.7v0.2
					C549.3,207.1,548.6,207.9,547.7,207.9z"/>
			</g>
			<g>
				<path class="st2" d="M525.7,325.6h-61.2c-0.9,0-1.7,0.8-1.7,1.7v0.2c0,0.9,0.8,1.7,1.7,1.7h61.2c0.9,0,1.7-0.8,1.7-1.7v-0.2
					C527.3,326.3,526.6,325.6,525.7,325.6z"/>
				<path class="st2" d="M536.6,299.5h-46.9c-0.9,0-1.7,0.8-1.7,1.7v0.2c0,0.9,0.8,1.7,1.7,1.7h46.9c0.9,0,1.7-0.8,1.7-1.7v-0.2
					C538.3,300.3,537.5,299.5,536.6,299.5z"/>
				<path class="st2" d="M547.7,274.7h-26.2c-0.9,0-1.7,0.8-1.7,1.7v0.2c0,0.9,0.8,1.7,1.7,1.7h26.2c0.9,0,1.7-0.8,1.7-1.7v-0.2
					C549.3,275.5,548.6,274.7,547.7,274.7z"/>
			</g>
		</g>
	</g>
	<g class="st1">
		<g>
			<path class="st2" d="M293.7,245h3.8v2.2h-6.7v-11.8h2.9C293.7,235.4,293.7,245,293.7,245z"/>
			<path class="st2" d="M301.4,246.6c-0.9-0.5-1.7-1.2-2.2-2.2c-0.5-0.9-0.8-2-0.8-3.1c0-1.2,0.3-2.2,0.8-3.1
				c0.5-0.9,1.3-1.6,2.2-2.2c0.9-0.5,1.9-0.8,3.1-0.8c1.1,0,2.1,0.3,3.1,0.8c0.9,0.5,1.7,1.2,2.2,2.2c0.5,0.9,0.8,2,0.8,3.1
				c0,1.2-0.3,2.2-0.8,3.1c-0.5,0.9-1.3,1.6-2.2,2.2c-0.9,0.5-1.9,0.8-3,0.8C303.3,247.4,302.3,247.1,301.4,246.6z M306.7,243.8
				c0.6-0.6,0.9-1.5,0.9-2.5s-0.3-1.9-0.9-2.5c-0.6-0.6-1.3-0.9-2.3-0.9s-1.7,0.3-2.3,0.9c-0.6,0.6-0.9,1.5-0.9,2.5s0.3,1.9,0.9,2.5
				c0.6,0.6,1.3,0.9,2.3,0.9C305.4,244.7,306.1,244.4,306.7,243.8z"/>
			<path class="st2" d="M319.5,245.1h-4.4l-0.7,2.1h-3l4.3-11.8h3.2l4.3,11.8h-3L319.5,245.1z M318.7,242.9l-1.5-4.3l-1.4,4.3H318.7
				z"/>
			<path class="st2" d="M332.2,236.1c0.9,0.5,1.7,1.2,2.2,2.1c0.5,0.9,0.8,1.9,0.8,3.1s-0.3,2.2-0.8,3.1c-0.5,0.9-1.2,1.6-2.2,2.1
				c-0.9,0.5-2,0.7-3.3,0.7h-4.4v-11.8h4.4C330.2,235.4,331.3,235.7,332.2,236.1z M331.3,243.8c0.6-0.6,0.9-1.4,0.9-2.5
				c0-1.1-0.3-1.9-0.9-2.5c-0.6-0.6-1.5-0.9-2.5-0.9h-1.4v6.9h1.4C329.8,244.7,330.7,244.4,331.3,243.8z"/>
			<path class="st2" d="M339.6,235.4v11.8h-2.9v-11.8H339.6z"/>
			<path class="st2" d="M352.3,247.2h-2.9l-4.8-7.3v7.3h-2.9v-11.8h2.9l4.8,7.3v-7.3h2.9V247.2z"/>
			<path class="st2" d="M362.2,239.1c-0.2-0.4-0.5-0.7-0.9-0.9c-0.4-0.2-0.9-0.3-1.4-0.3c-0.9,0-1.7,0.3-2.2,0.9
				c-0.6,0.6-0.8,1.4-0.8,2.5c0,1.1,0.3,1.9,0.9,2.6c0.6,0.6,1.4,0.9,2.4,0.9c0.7,0,1.3-0.2,1.8-0.5s0.8-0.9,1.1-1.5h-3.7v-2.1h6.3
				v2.7c-0.2,0.7-0.6,1.4-1.1,2c-0.5,0.6-1.2,1.1-1.9,1.5c-0.8,0.4-1.7,0.6-2.7,0.6c-1.2,0-2.2-0.3-3.1-0.8s-1.6-1.2-2.1-2.1
				c-0.5-0.9-0.8-1.9-0.8-3.1s0.3-2.2,0.8-3.1c0.5-0.9,1.2-1.6,2.1-2.1c0.9-0.5,1.9-0.8,3.1-0.8c1.4,0,2.6,0.3,3.6,1
				s1.6,1.6,1.9,2.8h-3.3V239.1L362.2,239.1z"/>
			<path class="st2" d="M367.3,246.9c-0.3-0.3-0.5-0.7-0.5-1.1c0-0.4,0.2-0.8,0.5-1.1c0.3-0.3,0.7-0.5,1.2-0.5s0.9,0.2,1.2,0.5
				c0.3,0.3,0.5,0.7,0.5,1.1c0,0.4-0.2,0.8-0.5,1.1c-0.3,0.3-0.7,0.4-1.2,0.4C368.1,247.4,367.7,247.2,367.3,246.9z"/>
			<path class="st2" d="M372.1,246.9c-0.3-0.3-0.5-0.7-0.5-1.1c0-0.4,0.2-0.8,0.5-1.1c0.3-0.3,0.7-0.5,1.2-0.5s0.9,0.2,1.2,0.5
				c0.3,0.3,0.5,0.7,0.5,1.1c0,0.4-0.2,0.8-0.5,1.1c-0.3,0.3-0.7,0.4-1.2,0.4C372.8,247.4,372.4,247.2,372.1,246.9z"/>
			<path class="st2" d="M376.8,246.9c-0.3-0.3-0.5-0.7-0.5-1.1c0-0.4,0.2-0.8,0.5-1.1c0.3-0.3,0.7-0.5,1.2-0.5s0.9,0.2,1.2,0.5
				c0.3,0.3,0.5,0.7,0.5,1.1c0,0.4-0.2,0.8-0.5,1.1c-0.3,0.3-0.7,0.4-1.2,0.4C377.6,247.4,377.2,247.2,376.8,246.9z"/>
		</g>
		<circle class="st2" cx="277.4" cy="241.3" r="6.1"/>
		<circle class="st2" cx="262.8" cy="241.3" r="6.1"/>
		<circle class="st2" cx="248.1" cy="241.3" r="6.1"/>
		<circle class="st2" cx="233.5" cy="241.3" r="6.1"/>
		<circle class="st2" cx="421.4" cy="241.3" r="6.1"/>
		<circle class="st2" cx="436" cy="241.3" r="6.1"/>
		<circle class="st2" cx="406.7" cy="241.3" r="6.1"/>
		<circle class="st2" cx="392.1" cy="241.3" r="6.1"/>
	</g>
</g>
<g>
	<g>
		<g>
			<path class="st3" d="M107.5,245.5h7.8v4.5h-13.8v-24.2h6C107.5,225.8,107.5,245.5,107.5,245.5z"/>
			<path class="st3" d="M123.3,248.8c-1.8-1-3.5-2.5-4.5-4.5c-1-1.8-1.6-4.1-1.6-6.4c0-2.5,0.6-4.5,1.6-6.4c1-1.8,2.7-3.3,4.5-4.5
				c1.8-1,3.9-1.6,6.4-1.6c2.3,0,4.3,0.6,6.4,1.6c1.8,1,3.5,2.5,4.5,4.5c1,1.8,1.6,4.1,1.6,6.4c0,2.5-0.6,4.5-1.6,6.4
				c-1,1.8-2.7,3.3-4.5,4.5c-1.8,1-3.9,1.6-6.2,1.6C127.2,250.5,125.1,249.9,123.3,248.8z M134.2,243.1c1.2-1.2,1.8-3.1,1.8-5.1
				c0-2.1-0.6-3.9-1.8-5.1c-1.2-1.2-2.7-1.8-4.7-1.8c-2.1,0-3.5,0.6-4.7,1.8c-1.2,1.2-1.8,3.1-1.8,5.1c0,2.1,0.6,3.9,1.8,5.1
				c1.2,1.2,2.7,1.8,4.7,1.8C131.5,244.9,133,244.3,134.2,243.1z"/>
			<path class="st3" d="M160.5,245.7h-9l-1.4,4.3h-6.2l8.8-24.2h6.6l8.8,24.2h-6.2L160.5,245.7z M158.8,241.2l-3.1-8.8l-2.9,8.8
				H158.8z"/>
			<path class="st3" d="M186.6,227.3c1.8,1,3.5,2.5,4.5,4.3c1,1.8,1.6,3.9,1.6,6.4c0,2.5-0.6,4.5-1.6,6.4c-1,1.8-2.5,3.3-4.5,4.3
				c-1.8,1-4.1,1.4-6.8,1.4h-9v-24.2h9C182.5,225.8,184.7,226.4,186.6,227.3z M184.7,243.1c1.2-1.2,1.8-2.9,1.8-5.1
				s-0.6-3.9-1.8-5.1c-1.2-1.2-3.1-1.8-5.1-1.8h-2.9v14.2h2.9C181.7,244.9,183.5,244.3,184.7,243.1z"/>
			<path class="st3" d="M201.8,225.8v24.2h-6v-24.2H201.8z"/>
			<path class="st3" d="M227.9,250.1h-6l-9.9-15v15h-6v-24.2h6l9.9,15v-15h6V250.1z"/>
			<path class="st3" d="M248.2,233.4c-0.4-0.8-1-1.4-1.8-1.8c-0.8-0.4-1.8-0.6-2.9-0.6c-1.8,0-3.5,0.6-4.5,1.8
				c-1.2,1.2-1.6,2.9-1.6,5.1s0.6,3.9,1.8,5.3c1.2,1.2,2.9,1.8,4.9,1.8c1.4,0,2.7-0.4,3.7-1c1-0.6,1.6-1.8,2.3-3.1h-7.6v-4.3h12.9
				v5.5c-0.4,1.4-1.2,2.9-2.3,4.1c-1,1.2-2.5,2.3-3.9,3.1c-1.6,0.8-3.5,1.2-5.5,1.2c-2.5,0-4.5-0.6-6.4-1.6c-1.8-1-3.3-2.5-4.3-4.3
				c-1-1.8-1.6-3.9-1.6-6.4s0.6-4.5,1.6-6.4c1-1.8,2.5-3.3,4.3-4.3c1.8-1,3.9-1.6,6.4-1.6c2.9,0,5.3,0.6,7.4,2.1
				c2.1,1.4,3.3,3.3,3.9,5.8h-6.8V233.4z"/>
			<path class="st3" d="M258.7,249.4c-0.6-0.6-1-1.4-1-2.3c0-0.8,0.4-1.6,1-2.3c0.6-0.6,1.4-1,2.5-1s1.8,0.4,2.5,1
				c0.6,0.6,1,1.4,1,2.3c0,0.8-0.4,1.6-1,2.3c-0.6,0.6-1.4,0.8-2.5,0.8C260.4,250.5,259.5,250.1,258.7,249.4z"/>
			<path class="st3" d="M268.6,249.4c-0.6-0.6-1-1.4-1-2.3c0-0.8,0.4-1.6,1-2.3c0.6-0.6,1.4-1,2.5-1s1.8,0.4,2.5,1
				c0.6,0.6,1,1.4,1,2.3c0,0.8-0.4,1.6-1,2.3c-0.6,0.6-1.4,0.8-2.5,0.8C270,250.5,269.2,250.1,268.6,249.4z"/>
			<path class="st3" d="M278.2,249.4c-0.6-0.6-1-1.4-1-2.3c0-0.8,0.4-1.6,1-2.3c0.6-0.6,1.4-1,2.5-1s1.8,0.4,2.5,1
				c0.6,0.6,1,1.4,1,2.3c0,0.8-0.4,1.6-1,2.3c-0.6,0.6-1.4,0.8-2.5,0.8C279.9,250.5,279.1,250.1,278.2,249.4z"/>
		</g>
		<circle class="st3" cx="74" cy="237.9" r="12.5"/>
		<circle class="st3" cx="44" cy="237.9" r="12.5"/>
		<circle class="st3" cx="13.8" cy="237.9" r="12.5"/>
		<circle class="st3" cx="-16.2" cy="237.9" r="12.5"/>
		<circle class="st3" cx="369.9" cy="237.9" r="12.5"/>
		<circle class="st3" cx="399.9" cy="237.9" r="12.5"/>
		<circle class="st3" cx="339.7" cy="237.9" r="12.5"/>
		<circle class="st3" cx="309.7" cy="237.9" r="12.5"/>
	</g>
	
		<image style="overflow:visible;enable-background:new    ;" width="620" height="666" xlink:href="plane.png"  transform="matrix(5.108487e-17 -0.8343 0.8343 5.108487e-17 415.6087 500.7825)">
	</image>
	<g>
		<g>
			<path class="st3" d="M622.4,113.8h-93.1c-1.4,0-2.7-1.2-2.7-2.7v-0.2c0-1.4,1.2-2.7,2.7-2.7h93.1c1.4,0,2.7,1.2,2.7,2.7v0.4
				C624.9,112.8,623.9,113.8,622.4,113.8z"/>
			<path class="st3" d="M639.1,153.5h-71.3c-1.4,0-2.7-1.2-2.7-2.7v-0.2c0-1.4,1.2-2.7,2.7-2.7h71.3c1.4,0,2.7,1.2,2.7,2.7v0.2
				C641.7,152.5,640.5,153.5,639.1,153.5z"/>
			<path class="st3" d="M655.9,191.3h-39.9c-1.4,0-2.7-1.2-2.7-2.7v-0.2c0-1.4,1.2-2.7,2.7-2.7h39.9c1.4,0,2.7,1.2,2.7,2.7v0.2
				C658.4,190.1,657.4,191.3,655.9,191.3z"/>
		</g>
		<g>
			<path class="st3" d="M622.4,370.5h-93.1c-1.4,0-2.7,1.2-2.7,2.7v0.2c0,1.4,1.2,2.7,2.7,2.7h93.1c1.4,0,2.7-1.2,2.7-2.7v-0.2
				C624.9,371.5,623.9,370.5,622.4,370.5z"/>
			<path class="st3" d="M639.1,330.6h-71.3c-1.4,0-2.7,1.2-2.7,2.7v0.2c0,1.4,1.2,2.7,2.7,2.7h71.3c1.4,0,2.7-1.2,2.7-2.7v-0.2
				C641.7,331.8,640.5,330.6,639.1,330.6z"/>
			<path class="st3" d="M655.9,293h-39.9c-1.4,0-2.7,1.2-2.7,2.7v0.2c0,1.4,1.2,2.7,2.7,2.7h39.9c1.4,0,2.7-1.2,2.7-2.7v-0.2
				C658.4,294.2,657.4,293,655.9,293z"/>
		</g>
	</g>
</g>
</svg>
