<?xml version="1.0" encoding="utf-8"?>
<!-- Generator: Adobe Illustrator 27.8.1, SVG Export Plug-In . SVG Version: 6.00 Build 0)  -->
<svg version="1.1" id="Layer_1" xmlns="http://www.w3.org/2000/svg" xmlns:xlink="http://www.w3.org/1999/xlink" x="0px" y="0px"
	 viewBox="0 0 200 157.4" style="enable-background:new 0 0 200 157.4;" xml:space="preserve">
<style type="text/css">
	.st0{fill:#FFFFFF;}
</style>
<g>
	<path class="st0" d="M3.6,89.3c2.6-0.9,5.2-0.5,7.8,0.3c3.6,1.1,7,3,10.2,5c3.5,2.1,7,4.3,10.5,6.4c0.9,0.5,1.7,0.5,2.6,0.1
		c0.6-0.3,1.2-0.6,1.9-0.9c5.8-2.6,11.5-5.2,17.3-7.7c5.2-2.2,10.5-4.3,15.8-6.5c1-0.4,2-0.4,2.9,0.2c0.4,0.2,3.1,3.1,3.7,3.6
		c0.5,0.4-1.2,1.6-1.8,2.1c-3.7,3.2-7.4,6.3-11.1,9.5c-3.8,3.2-7.5,6.5-11.3,9.8c-0.3,0.3-0.6,0.6-0.9,1c1.9,1.1,3.7,2.1,5.4,3.1
		c7.2,4.1,14.5,8,21.1,13.1c1.6,1.2,3.3,1.4,5.1,0.9c3.6-0.8,7.2-1.6,10.8-2.4c2.7-0.6,4.4,0.2,5.9,2.4c0.4,0.7,0.4,1.1-0.4,1.5
		c-2.7,1.5-5.3,3.2-8,4.8c-0.7,0.4-0.7,0.6,0,1c0.1,0.1,0.3,0.2,0.4,0.2c7.5,3.9,15.5,6.1,23.9,6.9c9,0.9,17.8,0.3,26.6-1.9
		c5.4-1.4,10.7-3.3,15.5-6c8.1-4.6,15-10.7,20.9-17.9c8.9-11.1,14-23.8,15.1-38c0.9-11.2-0.7-22-5-32.3
		c-4.4-10.8-11.2-19.9-20.2-27.4c-9.8-8.1-21-13.3-33.5-15.7c-8.5-1.6-17-1.7-25.5,0c-6.8,1.3-13.2,3.7-19.3,7
		C81.5,15.9,74.2,21.9,67.6,29c-0.3,0.4-0.8,0.8-1.3,1.2c-0.2,0.2-0.5,0-0.4-0.3c1.3-2.6,3.2-5,5.2-7c5-4.9,10.8-8.8,16.9-12.2
		c8.7-4.9,17.9-8.1,27.8-9.2c9.3-1,18.5-0.5,27.5,2c7.5,2.1,14.4,5.2,20.9,9.5c8.9,6,16.2,13.6,22,22.7
		c6.5,10.2,10.3,21.4,11.5,33.4c0.7,7.4,0.3,14.8-1.4,22.1c-1.7,7.7-4.6,14.9-8.6,21.6c-4.6,7.7-10.3,14.5-17,20.4
		c-7.4,6.5-15.8,11.2-25.2,14.1c-4.7,1.5-9.6,2.4-14.5,2.9c-6.2,0.6-12.3,0.5-18.4-0.3c-6.7-0.9-13.2-2.6-19.5-5.2
		c-2.4-1-4.8-2.2-7.1-3.4c-0.3-0.2-0.7-0.2-1.1-0.4c-0.1,0.4-0.3,0.7-0.3,1.1c0.1,4.2,0.2,8.3,0.3,12.5c0,0.4,0.1,0.8-0.6,0.8
		c-2.2,0.1-4.4-1.2-5.1-3.2c-1.4-4.1-2.7-8.3-4-12.5c-0.3-1.1-0.9-1.9-2-2.4c-5.8-2.3-11.2-5.3-16.6-8.5c-3.5-2.1-7.1-4-10.6-6
		c-1.1-0.6-1.3-0.5-1.6,0.7c-0.6,1.9-1.1,3.9-1.5,5.9c-1,6.1-1.9,12.2-3,18.2c-0.4,2.6-1.1,5.2-1.7,7.8c-0.2,0.8-0.6,0.9-1.4,0.3
		c-1.3-0.9-2.6-1.7-4.1-2.3c-0.9-0.4-1.4-1-1.5-1.9c-0.4-4.1-0.8-8.2-1.3-12.3c-0.7-6-1.3-12-2-18c-0.3-2.9-0.8-5.8-1.3-8.7
		c-0.1-0.5-0.5-1-0.9-1.2c-2.8-1.7-5.8-3.3-8.6-4.9c-4.1-2.4-8.2-4.8-11.9-7.9c-2-1.7-3.5-3.8-3.9-6.5C1.6,90.8,2.1,89.8,3.6,89.3z"
		/>
	<g>
		<path class="st0" d="M161.4,46H89.1c-1.8,0-3.3-1.5-3.3-3.3v-0.9c0-1.8,1.5-3.3,3.3-3.3h72.3c1.8,0,3.3,1.5,3.3,3.3v0.9
			C164.7,44.6,163.2,46,161.4,46z"/>
		<path class="st0" d="M161.4,76.3H89.1c-1.8,0-3.3-1.5-3.3-3.3v-0.9c0-1.8,1.5-3.3,3.3-3.3h72.3c1.8,0,3.3,1.5,3.3,3.3V73
			C164.7,74.8,163.2,76.3,161.4,76.3z"/>
		<path class="st0" d="M161.4,106.6H89.1c-1.8,0-3.3-1.5-3.3-3.3v-0.9c0-1.8,1.5-3.3,3.3-3.3h72.3c1.8,0,3.3,1.5,3.3,3.3v0.9
			C164.7,105.1,163.2,106.6,161.4,106.6z"/>
	</g>
</g>
</svg>
