<?xml version="1.0" encoding="utf-8"?>
<!-- Generator: Adobe Illustrator 27.8.1, SVG Export Plug-In . SVG Version: 6.00 Build 0)  -->
<svg version="1.1" id="Layer_1" xmlns="http://www.w3.org/2000/svg" xmlns:xlink="http://www.w3.org/1999/xlink" x="0px" y="0px"
	 viewBox="0 0 62 102" style="enable-background:new 0 0 62 102;" xml:space="preserve">
<style type="text/css">
	.st0{fill:#FFFFFF;}
</style>
<path class="st0" d="M15.3,101c0-13.9,0-27.7,0-41.6c-4.3,0-8.5,0-12.8,0c0-6.3,0-12.5,0-18.9c4.2,0,8.4,0,12.8,0c0-0.6,0-1,0-1.4
	c0.1-4.8,0-9.7,0.5-14.5c0.7-6.8,3.1-12.8,8.5-17.4c3.5-2.9,7.6-4.6,12.1-5.4c7.5-1.3,15-0.9,22.4,0.6c0.3,0.1,0.6,0.5,0.6,0.7
	c0,5.5,0,11,0,16.6c-1.6-0.1-3.1-0.3-4.5-0.2c-2.9,0.1-5.8,0.1-8.6,0.6c-4.2,0.8-6.7,3.6-7.8,7.7c-0.6,2.3-0.9,10.1-0.5,12.3
	c6.7,0,13.5,0,20.4,0C57.3,46.7,56.1,53,55,59.4c-5.7,0-11.3,0-17,0c0,0.6,0,1,0,1.5c0,12.9,0,25.7,0,38.6c0,1.5,0,1.5-1.5,1.5
	c-6.5,0-13.1,0-19.6,0C16.3,101,15.9,101,15.3,101z"/>
</svg>
