<?xml version="1.0" encoding="utf-8"?>
<!-- Generator: Adobe Illustrator 27.8.1, SVG Export Plug-In . SVG Version: 6.00 Build 0)  -->
<svg version="1.1" id="Layer_1" xmlns="http://www.w3.org/2000/svg" xmlns:xlink="http://www.w3.org/1999/xlink" x="0px" y="0px"
	 viewBox="0 0 200 159.6" style="enable-background:new 0 0 200 159.6;" xml:space="preserve">
<style type="text/css">
	.st0{fill:#FFFFFF;}
</style>
<g>
	<path class="st0" d="M99.9,134.2c29,0,58,0,87.1,0c3.3,0,6.3,0.6,8.5,3.2c2.7,3.2,3,6.9,1.5,10.6c-1.6,4-5,5.5-9.1,5.7
		c-0.4,0-0.9,0-1.3,0c-57.7,0-115.4,0-173.1,0c-3.6,0-7-0.6-9.3-3.7c-2.4-3.2-2.7-6.8-1.1-10.3c1.5-3.4,4.3-5.2,8.1-5.4
		c0.9,0,1.8-0.1,2.7-0.1C42.5,134.2,71.2,134.2,99.9,134.2z"/>
	<g>
		<path class="st0" d="M77.8,52.7c-3.8-3.6-7.3-6.9-11-10.3C59.4,35.5,52,28.7,44.7,21.7c-3.2-3.1-2.8-6.4,1.1-8.7
			c3-1.8,6.1-3.7,9.1-5.5c3.8-2.3,7.4-2.2,11.3-0.1c18.9,10.8,37.8,21.4,56.7,32.2c1.2,0.7,2.2,0.8,3.4,0.5
			c10.2-2.6,20.5-5.3,30.7-7.9c4.7-1.2,9.5-1.8,14.5-1.2c5.3,0.7,10.7,0.8,15.9,2.1c9.3,2.3,12.2,12.5,6,19.8
			c-5.5,6.6-11.9,12.2-19.5,16.2c-5.8,3-11.9,4.9-18.1,6.8c-27.8,8.1-55.5,16.4-83.2,24.7c-4.6,1.3-9,1.6-13.6,0.4
			c-10.7-2.8-21.3-5.6-32-8.3c-3.8-1-6.6-2.9-8.5-6.4c-4.4-7.7-9.2-15.2-13.8-22.9c-2.5-4.1-1.3-7.3,3.3-8.7c3-1,6-2,9-3
			c3.4-1.1,6.5-0.7,9.4,1.6c3.8,3,7.4,5.9,11.2,8.8c0.6,0.4,1.6,0.7,2.2,0.5c12.4-3.2,24.9-6.4,37.4-9.6
			C77.3,53.1,77.4,52.9,77.8,52.7z"/>
		<path class="st0" d="M126,113.1c-5,3-10.3,1.7-13.3-3.3c-2.9-4.9-1.6-10.5,3.3-13.3c4.9-2.9,10.5-1.4,13.3,3.5
			C132.3,104.7,130.9,110.1,126,113.1z"/>
		<path class="st0" d="M100.6,106.8c2.9,4.8,1.6,10.5-3.3,13.3c-4.8,2.9-10.3,1.4-13.2-3.3c-2.9-4.9-1.6-10.5,3.2-13.4
			C92.1,100.5,97.6,101.9,100.6,106.8z"/>
	</g>
</g>
</svg>
